<?xml version="1.0" encoding="utf-8"?>
<!-- Generator: Adobe Illustrator 24.1.2, SVG Export Plug-In . SVG Version: 6.00 Build 0)  -->
<svg version="1.1" id="Layer_1" xmlns="http://www.w3.org/2000/svg" xmlns:xlink="http://www.w3.org/1999/xlink" x="0px" y="0px"
	 viewBox="0 0 511 352.4" style="enable-background:new 0 0 511 352.4;" xml:space="preserve">
<style type="text/css">
	.st0{fill:#C03A2B;}
	.st1{fill:#F3D55B;}
</style>
<path class="st0" d="M396.5,352.4h96.9c9.7,0,17.6-7.9,17.6-17.6V17.6C511,7.9,503.1,0,493.4,0H17.6C7.9,0,0,7.9,0,17.6v317.2
	c0,9.7,7.9,17.6,17.6,17.6H396.5z"/>
<g>
	<path class="st1" d="M85.5,61.7L101,93.1l34.7,5l-25.1,24.5l5.9,34.6L85.5,141l-31.1,16.3l5.9-34.6L35.2,98.2l34.7-5L85.5,61.7z"/>
	<path class="st1" d="M154,31.6l12.2,4.1l10.4-7.7l-0.2,12.9l10.6,7.5l-12.4,3.8l-3.8,12.4L163.4,54l-12.9,0.2l7.7-10.4L154,31.6z"
		/>
	<path class="st1" d="M154,187.2l12.2,4.1l10.4-7.7l-0.2,12.9l10.6,7.5l-12.4,3.8l-3.8,12.4l-7.5-10.6l-12.9,0.2l7.7-10.4L154,187.2
		z"/>
	<path class="st1" d="M197.4,81.5l12.2,4.2l10.4-7.7l-0.2,12.9l10.6,7.5l-12.4,3.8l-3.8,12.4l-7.5-10.6l-12.9,0.2l7.7-10.4
		L197.4,81.5z"/>
	<path class="st1" d="M197.4,144.5l12.2,4.2L220,141l-0.2,12.9l10.6,7.5l-12.4,3.8l-3.8,12.4l-7.5-10.6l-12.9,0.2l7.7-10.4
		L197.4,144.5z"/>
</g>
</svg>
